# 3ds Max Wavefront OBJ Exporter v0.97b - (c)2007 guruware
# File Created: 14.04.2016 18:21:38

#
# object default
#

v  -1.0000 -1.0000 1.0000
v  1.0000 -1.0000 1.0000
v  -1.0000 1.0000 1.0000
v  1.0000 1.0000 1.0000
v  -1.0000 1.0000 -1.0000
v  1.0000 1.0000 -1.0000
v  -1.0000 -1.0000 -1.0000
v  1.0000 -1.0000 -1.0000
# 8 vertices

vn 0.0000 0.0000 1.0000
vn 0.0000 1.0000 -0.0000
vn 0.0000 0.0000 -1.0000
vn 0.0000 -1.0000 -0.0000
vn 1.0000 0.0000 -0.0000
vn -1.0000 0.0000 -0.0000
# 6 vertex normals

vt 0.0020 0.0020 0.0000
vt 0.9980 0.0020 0.0000
vt 0.0020 0.9980 0.0000
vt 0.9980 0.9980 0.0000
# 4 texture coords

g default
f 1/1/1 2/2/1 3/3/1 
f 3/3/1 2/2/1 4/4/1 
f 3/1/2 4/2/2 5/3/2 
f 5/3/2 4/2/2 6/4/2 
f 5/4/3 6/3/3 7/2/3 
f 7/2/3 6/3/3 8/1/3 
f 7/1/4 8/2/4 1/3/4 
f 1/3/4 8/2/4 2/4/4 
f 2/1/5 8/2/5 4/3/5 
f 4/3/5 8/2/5 6/4/5 
f 7/1/6 1/2/6 5/3/6 
f 5/3/6 1/2/6 3/4/6 
# 12 faces

